<svg width="30" height="30" viewBox="0 0 30 30" fill="none" xmlns="http://www.w3.org/2000/svg">
<rect width="30" height="30" fill="#98CEFF"/>
<path d="M15 7.5C17.0677 7.5 18.75 9.18225 18.75 11.2508C18.75 13.3177 17.0677 15.0008 15 15.0008C12.9323 15.0008 11.25 13.3177 11.25 11.2508C11.25 9.18225 12.9323 7.5 15 7.5ZM15 6C12.1005 6 9.75 8.3505 9.75 11.2508C9.75 14.1495 12.1005 16.5008 15 16.5008C17.8995 16.5008 20.25 14.1495 20.25 11.2508C20.25 8.3505 17.8995 6 15 6V6ZM19.7767 16.0147C19.404 16.3882 18.984 16.713 18.5333 16.9913C20.6873 18.3967 21.8168 20.8035 22.2623 22.5007H7.722C8.151 20.7832 9.2655 18.3735 11.4517 16.9823C10.9995 16.7017 10.5803 16.374 10.2083 15.9983C7.01475 18.3022 6 22.3778 6 24H24C24 22.3935 22.92 18.3322 19.7767 16.0147Z" fill="white"/>
</svg>
