<?xml version="1.0" encoding="iso-8859-1"?>
<!-- Generator: Adobe Illustrator 19.0.0, SVG Export Plug-In . SVG Version: 6.00 Build 0)  -->
<svg version="1.1" id="Capa_1" xmlns="http://www.w3.org/2000/svg" xmlns:xlink="http://www.w3.org/1999/xlink" x="0px" y="0px"
	 viewBox="0 0 512 512" width="24" height="24" xml:space="preserve">
<path style="fill:#57555C;" d="M415.75,456v46h-320v-46c0-11.05,8.95-20,20-20h280C406.8,436,415.75,444.95,415.75,456z"/>
<path style="fill:#FEDB51;" d="M395.75,416v20h-280v-20c0-11.05,8.95-20,20-20h240C386.8,396,395.75,404.95,395.75,416z"/>
<path style="fill:#FD6244;" d="M375.75,230v166h-240V230c0-66.17,53.83-120,120-120S375.75,163.83,375.75,230z"/>
<path d="M256,160c5.52,0,10-4.48,10-10s-4.48-10-10-10s-10,4.48-10,10S250.48,160,256,160z"/>
<path d="M96,512h320c5.522,0,10-4.477,10-10v-46c0-13.036-8.361-24.152-20-28.28V416c0-13.036-8.361-24.152-20-28.28V230
	c0-71.682-58.317-130-130-130s-130,58.318-130,130v157.72c-11.639,4.128-20,15.243-20,28.28v11.72c-11.639,4.128-20,15.243-20,28.28
	v46C86,507.523,90.478,512,96,512z M256,120c60.654,0,110,49.346,110,110v156H146V230C146,169.346,195.346,120,256,120z M136,406
	h240c5.514,0,10,4.486,10,10v10H126v-10C126,410.486,130.486,406,136,406z M106,456c0-5.514,4.486-10,10-10h280
	c5.514,0,10,4.486,10,10v36H106V456z"/>
<path d="M486,230c0-5.523-4.478-10-10-10h-60c-5.522,0-10,4.477-10,10s4.478,10,10,10h60C481.522,240,486,235.523,486,230z"/>
<path d="M26,230c0,5.523,4.478,10,10,10h60c5.522,0,10-4.477,10-10s-4.478-10-10-10H36C30.478,220,26,224.477,26,230z"/>
<path d="M376.211,123.931l42.42-42.42c3.905-3.905,3.905-10.237,0-14.143c-3.906-3.905-10.236-3.905-14.143,0l-42.42,42.42
	c-3.905,3.905-3.905,10.237,0,14.143C365.974,127.836,372.305,127.837,376.211,123.931z"/>
<path d="M149.932,123.931c3.905-3.905,3.905-10.237,0-14.143l-42.42-42.42c-3.906-3.905-10.236-3.905-14.143,0
	c-3.905,3.905-3.905,10.237,0,14.143l42.42,42.42C139.695,127.836,146.025,127.837,149.932,123.931z"/>
<path d="M266,70V10c0-5.523-4.478-10-10-10s-10,4.477-10,10v60c0,5.523,4.478,10,10,10S266,75.523,266,70z"/>
<path d="M281.775,164.913C308.641,175.593,326,201.142,326,230c0,5.523,4.478,10,10,10s10-4.477,10-10
	c0-18.36-5.516-36.034-15.949-51.112c-10.185-14.716-24.323-25.976-40.887-32.561c-5.131-2.039-10.947,0.466-12.987,5.598
	C274.137,157.058,276.644,162.873,281.775,164.913z"/>
<g>
</g>
<g>
</g>
<g>
</g>
<g>
</g>
<g>
</g>
<g>
</g>
<g>
</g>
<g>
</g>
<g>
</g>
<g>
</g>
<g>
</g>
<g>
</g>
<g>
</g>
<g>
</g>
<g>
</g>
</svg>
