<?xml version="1.0" encoding="iso-8859-1"?>
<!-- Generator: Adobe Illustrator 19.0.0, SVG Export Plug-In . SVG Version: 6.00 Build 0)  -->
<svg version="1.1" id="Capa_1" xmlns="http://www.w3.org/2000/svg" xmlns:xlink="http://www.w3.org/1999/xlink" x="0px" y="0px"
	 viewBox="0 0 512 512"  xml:space="preserve" width="24" height="24">
<path style="fill:#FF5050;" d="M297.568,7.186c-25.388,0.027-35.764,20.485-36.541,21.384c-2.938,3.367-6.845,4.058-10.81-0.076
	C236.582,4.5,203.785-0.065,184.165,19.582c-7.916,7.926-12.268,18.445-12.257,29.622c0.048,46.857,41.368,83.854,81.96,103.013
	c0.607,0.286,1.262,0.43,1.917,0.43c0.658,0,1.316-0.145,1.925-0.434c40.948-19.43,81.801-56.542,81.754-103.181
	C339.439,25.959,320.647,7.186,297.568,7.186z"/>
<path style="fill:#EE3E3E;" d="M191.91,49.203c-0.011-11.176,4.342-21.696,12.257-29.622c5.685-5.693,12.479-9.34,19.589-11.084
	c-26.632-6.5-51.874,13.762-51.848,40.705c0.048,46.857,41.368,83.854,81.96,103.013c0.607,0.286,1.262,0.43,1.917,0.43
	c0.658,0,1.316-0.145,1.925-0.434c1.875-0.89,4.631-2.255,8.005-4.086C227.927,128.055,191.955,92.923,191.91,49.203z"/>
<path style="fill:#AD7B64;" d="M310.55,286.794c2.147,4.218,6.151,6.822,10.489,6.822h122.166v194.431
	c0,8.917-6.456,16.144-14.422,16.144h-173.58V185.12L310.55,286.794z"/>
<polygon style="fill:#966653;" points="255.203,185.12 255.203,504.191 274.527,504.191 274.527,220.617 "/>
<path style="fill:#AD7B64;" d="M200.822,286.794c-2.147,4.218-6.151,6.822-10.489,6.822H68.168v194.431
	c0,8.917,6.456,16.144,14.422,16.144h173.58V185.12L200.822,286.794z"/>
<path style="fill:#966653;" d="M87.491,488.047V293.616H68.168v194.431c0,8.917,6.456,16.144,14.422,16.144h19.323
	C93.948,504.191,87.491,496.963,87.491,488.047z"/>
<path style="fill:#9E6B57;" d="M488.571,296.86H319.107c-4.337,0-8.342-2.604-10.489-6.822L255.203,185.12H433.72
	c5.863,0,11.277,3.521,14.18,9.224l46.487,91.312C496.932,290.652,493.708,296.86,488.571,296.86z"/>
<path style="fill:#875848;" d="M330.477,290.038L277.062,185.12h-21.858l53.415,104.918c2.147,4.218,6.151,6.822,10.489,6.822
	h21.858C336.628,296.86,332.624,294.256,330.477,290.038z"/>
<path style="fill:#9E6B57;" d="M22.801,296.86h169.464c4.337,0,8.342-2.604,10.489-6.822l53.415-104.918H77.652
	c-5.863,0-11.277,3.521-14.18,9.224l-46.487,91.312C14.441,290.652,17.664,296.86,22.801,296.86z"/>
<path style="fill:#875848;" d="M36.307,285.656l46.487-91.312c2.903-5.702,8.317-9.224,14.18-9.224H77.652
	c-5.863,0-11.277,3.521-14.18,9.224l-46.487,91.312c-2.544,4.996,0.68,11.205,5.816,11.205h19.322
	C36.987,296.86,33.764,290.652,36.307,285.656z"/>
<path d="M501.391,282.566l-46.394-91.313c-4.177-8.221-12.162-13.326-20.84-13.326c-15.644,0-340.699,0-356.315,0
	c-8.678,0-16.662,5.105-20.84,13.326l-46.394,91.313c-2.453,4.828-2.223,10.688,0.601,15.289c2.618,4.267,7.064,6.813,11.892,6.813
	h37.775v183.686c0,13.037,9.821,23.645,21.894,23.645c4.953,0,341.508,0,346.461,0c12.072,0,21.894-10.607,21.894-23.645V409.5
	c0-4.143-3.357-7.501-7.501-7.501s-7.501,3.357-7.501,7.501v78.855c0,4.685-3.156,8.644-6.893,8.644h-165.73v-280.25l39.12,76.994
	c3.423,6.74,9.997,10.927,17.154,10.927h116.347v69.829c0,4.143,3.357,7.501,7.501,7.501s7.501-3.357,7.501-7.501v-69.829h37.775
	c4.828,0,9.273-2.547,11.892-6.813C503.614,293.253,503.845,287.395,501.391,282.566z M23.983,289.362l46.394-91.313
	c1.604-3.158,4.465-5.12,7.466-5.12h165.933c-5.733,11.285-40.032,78.789-47.77,94.02v0.001c-0.853,1.677-2.301,2.719-3.78,2.719
	c-4.23,0-163.746,0-168.314,0C23.911,289.574,23.93,289.468,23.983,289.362z M75.878,488.355V304.669h116.347
	c7.183,0,13.743-4.21,17.154-10.926l39.12-76.995v280.249H82.771C79.034,496.999,75.878,493.04,75.878,488.355z M319.776,289.668
	c-1.479,0-2.928-1.042-3.78-2.72l-47.77-94.02h165.933c3,0,5.86,1.962,7.466,5.12l46.394,91.313
	c0.054,0.106,0.072,0.212,0.072,0.307C483.515,289.668,324.009,289.668,319.776,289.668z"/>
<path d="M234.69,150.679c1.196,0.706,2.508,1.041,3.803,1.041c2.567,0,5.068-1.319,6.467-3.691c2.104-3.567,0.918-8.167-2.65-10.271
	c-18.801-11.089-62.538-41.885-62.587-88.252c-0.02-20.658,18.178-36.898,38.96-34.1c18.574,2.503,25.006,17.097,26.435,18.587
	c6.624,6.91,15.664,6.935,21.897-0.207c1.665-1.925,9.706-18.768,30.868-18.79c18.944,0,34.376,15.411,34.397,34.353
	c0.045,44.146-39.226,74.324-62.639,88.384c-3.551,2.133-4.701,6.74-2.568,10.292c2.134,3.552,6.74,4.699,10.292,2.568
	c45.124-27.099,69.955-63.061,69.916-101.26c-0.054-48.282-63.51-68.835-91.283-26.012C239.28-3.502,201.765-8.032,179.175,14.59
	c-9.332,9.345-14.464,21.75-14.451,34.931C164.762,87.608,190.263,124.48,234.69,150.679z"/>
<g>
</g>
<g>
</g>
<g>
</g>
<g>
</g>
<g>
</g>
<g>
</g>
<g>
</g>
<g>
</g>
<g>
</g>
<g>
</g>
<g>
</g>
<g>
</g>
<g>
</g>
<g>
</g>
<g>
</g>
</svg>
