<?xml version="1.0" encoding="iso-8859-1"?>
<!-- Generator: Adobe Illustrator 19.0.0, SVG Export Plug-In . SVG Version: 6.00 Build 0)  -->
<svg version="1.1" id="Capa_1" xmlns="http://www.w3.org/2000/svg" xmlns:xlink="http://www.w3.org/1999/xlink" x="0px" y="0px"
	 viewBox="0 0 426.808 426.808" width="24" height="24" xml:space="preserve">
<path style="fill:#009688;" d="M373.344,288.355c-24.696,0.048-49.241-3.856-72.704-11.563c-10.971-3.821-23.156-1.241-31.637,6.699
	l-46.037,34.731c-49.441-24.823-89.557-64.931-114.389-114.368l33.813-44.928c8.537-8.543,11.59-21.136,7.915-32.64
	c-7.735-23.494-11.661-48.076-11.627-72.811c0-17.673-14.327-32-32-32H32.011c-17.673,0-32,14.327-32,32
	c0.235,206.089,167.244,373.098,373.333,373.333c17.673,0,32-14.327,32-32v-74.453C405.344,302.682,391.017,288.355,373.344,288.355
	z"/>
<g>
	<path style="fill:#455A64;" d="M416.011,149.475c-5.891,0-10.667-4.776-10.667-10.667V21.475H288.011
		c-5.891,0-10.667-4.776-10.667-10.667s4.776-10.667,10.667-10.667h128c5.891,0,10.667,4.776,10.667,10.667v128
		C426.677,144.699,421.902,149.475,416.011,149.475z"/>
	<path style="fill:#455A64;" d="M202.677,234.808c-5.891,0.011-10.675-4.757-10.686-10.648c-0.005-2.84,1.123-5.565,3.134-7.571
		L408.459,3.256c4.093-4.237,10.845-4.354,15.083-0.262c4.237,4.093,4.354,10.845,0.262,15.083
		c-0.086,0.089-0.173,0.176-0.262,0.262L210.208,231.672C208.212,233.674,205.504,234.802,202.677,234.808z"/>
</g>
<g>
</g>
<g>
</g>
<g>
</g>
<g>
</g>
<g>
</g>
<g>
</g>
<g>
</g>
<g>
</g>
<g>
</g>
<g>
</g>
<g>
</g>
<g>
</g>
<g>
</g>
<g>
</g>
<g>
</g>
</svg>
