<svg id="Capa_1" enable-background="new 0 0 496.996 496.996" height="512" viewBox="0 0 496.996 496.996" width="512" xmlns="http://www.w3.org/2000/svg"><g><path d="m68.239 429.183-63.631 63.632c4.481 4.31 10.972 5.286 16.372 2.937.003.003 22.217-9.684 49.722-21.68z" fill="#3a4e66"/><path d="m16.253 491.04 43.026-28.39 8.961-33.467-45.308-2.882-21.686 49.716c-2.378 5.493-1.341 12.11 3.145 16.597.07.07.146.132.217.201 2.413 2.08 7.043 1.251 11.645-1.775z" fill="#496585"/><path d="m174.082 428.975 47.741-153.793-162.545 187.468 11.424 11.424c44.357-19.353 102.474-44.703 103.38-45.099z" fill="#ffdbb2"/><path d="m221.823 275.182-153.8 47.734-45.093 103.386 36.348 36.348 113.788-75.082z" fill="#ffefe0"/><path d="m329.115 125.464-156.049 262.104v33.64c0 2.686.353 5.29 1.015 7.767.007.007 186.853-186.839 186.853-186.839z" fill="#146cc4"/><path d="m254.869 136.07-186.845 186.845c2.476.661 5.078 1.014 7.763 1.014h33.64s262.098-156.032 262.098-156.032z" fill="#05a9f2"/><path d="m109.427 323.929v33.64c0 16.569 13.432 30 30 30h33.64l5.272-5.262 203.809-203.809-63.645-63.645z" fill="#1188d9"/><path d="m360.916 242.14-21.213-21.213 21.213-106.066 21.214 106.066z" fill="#e8f8ff"/><path d="m339.703 220.927-84.853-84.853 21.214-21.213 127.279 42.427z" fill="#fff"/><path d="m488.204 72.426-21.213-21.213-106.075 148.501 21.213 21.213 106.074-106.074c11.717-11.716 11.717-30.711.001-42.427z" fill="#3a4e66"/><path d="m466.991 51.213-42.426-42.426c-11.716-11.716-30.711-11.716-42.426 0l-106.075 106.074 84.853 84.853 106.074-106.074c11.716-11.716 11.716-30.711 0-42.427z" fill="#496585"/></g></svg>