<?xml version="1.0" encoding="iso-8859-1"?>
<!-- Generator: Adobe Illustrator 19.0.0, SVG Export Plug-In . SVG Version: 6.00 Build 0)  -->
<svg version="1.1" id="Capa_1" xmlns="http://www.w3.org/2000/svg" xmlns:xlink="http://www.w3.org/1999/xlink" x="0px" y="0px"
	 viewBox="0 0 512.335 512.335" xml:space="preserve">
<path style="fill:#2196F3;" d="M440.35,259.314c-71.04-68.587-172.224-76.971-205.675-77.803V42.845
	c0.011-5.891-4.757-10.675-10.648-10.686c-2.84-0.005-5.565,1.123-7.571,3.134L3.123,248.626c-4.164,4.165-4.164,10.917,0,15.083
	l213.333,213.333c4.16,4.171,10.914,4.179,15.085,0.019c2.006-2.001,3.133-4.717,3.134-7.55V331.229
	c46.208,2.283,226.453,17.728,256.427,119.957c1.649,5.655,7.571,8.903,13.227,7.253c4.559-1.33,7.69-5.513,7.68-10.261
	C515.589,377.972,489.6,309.475,440.35,259.314z"/>
<g>
</g>
<g>
</g>
<g>
</g>
<g>
</g>
<g>
</g>
<g>
</g>
<g>
</g>
<g>
</g>
<g>
</g>
<g>
</g>
<g>
</g>
<g>
</g>
<g>
</g>
<g>
</g>
<g>
</g>
</svg>
