<?xml version="1.0" encoding="iso-8859-1"?>
<!-- Generator: Adobe Illustrator 19.0.0, SVG Export Plug-In . SVG Version: 6.00 Build 0)  -->
<svg version="1.1" id="Capa_1" xmlns="http://www.w3.org/2000/svg" xmlns:xlink="http://www.w3.org/1999/xlink" x="0px" y="0px"
	 viewBox="0 0 512 512"  xml:space="preserve">
<g>
	<g>
		<path d="M395.891,99.28l-0.699,363.758c0,3.791-3.203,6.995-6.995,6.995H123.803c-3.791,0-6.995-3.203-6.995-7.036L116.109,99.28
			l-41.967,0.084l0.699,363.674c0,26.992,21.963,48.962,48.962,48.962h264.393c26.992,0,48.962-21.963,48.962-48.92l0.699-363.716
			L395.891,99.28z"/>
	</g>
</g>
<g>
	<g>
		<path d="M477.027,78.339H34.973c-11.59,0-20.984,9.394-20.984,20.984c0,11.59,9.394,20.984,20.984,20.984h442.055
			c11.59,0,20.984-9.394,20.984-20.984C498.011,87.732,488.617,78.339,477.027,78.339z"/>
	</g>
</g>
<g>
	<g>
		<path d="M312.656,0H199.344c-19.284,0-34.973,15.689-34.973,34.973v64.35h41.967V41.967h99.322v57.355h41.967v-64.35
			C347.628,15.689,331.94,0,312.656,0z"/>
	</g>
</g>
<g>
	<g>
		<path d="M206.339,187.454c-11.59,0-20.984,9.394-20.984,20.984v169.268c0,11.59,9.394,20.984,20.984,20.984
			s20.984-9.394,20.984-20.984V208.437C227.322,196.847,217.929,187.454,206.339,187.454z"/>
	</g>
</g>
<g>
	<g>
		<path d="M305.661,187.454c-11.59,0-20.984,9.394-20.984,20.984v169.268c0,11.59,9.394,20.984,20.984,20.984
			c11.59,0,20.984-9.394,20.984-20.984V208.437C326.645,196.847,317.251,187.454,305.661,187.454z"/>
	</g>
</g>
<g>
</g>
<g>
</g>
<g>
</g>
<g>
</g>
<g>
</g>
<g>
</g>
<g>
</g>
<g>
</g>
<g>
</g>
<g>
</g>
<g>
</g>
<g>
</g>
<g>
</g>
<g>
</g>
<g>
</g>
</svg>
