<svg width="14" height="14" viewBox="0 0 14 14" fill="none" xmlns="http://www.w3.org/2000/svg">
<path d="M8.99967 1.66671V6.33337H2.44634L2.05301 6.72671L1.66634 7.11337V1.66671H8.99967ZM9.66634 0.333374H0.999674C0.633008 0.333374 0.333008 0.633374 0.333008 1.00004V10.3334L2.99967 7.66671H9.66634C10.033 7.66671 10.333 7.36671 10.333 7.00004V1.00004C10.333 0.633374 10.033 0.333374 9.66634 0.333374ZM12.9997 3.00004H11.6663V9.00004H2.99967V10.3334C2.99967 10.7 3.29967 11 3.66634 11H10.9997L13.6663 13.6667V3.66671C13.6663 3.30004 13.3663 3.00004 12.9997 3.00004Z" fill="#70A1FF"/>
</svg>
