<svg width="14" height="12" viewBox="0 0 14 12" fill="none" xmlns="http://www.w3.org/2000/svg">
<path d="M13.6 3.92667L12.9 1.01333C12.7533 0.413333 12.2333 0 11.6267 0H2.36667C1.76667 0 1.24 0.42 1.1 1.01333L0.400004 3.92667C0.240004 4.60667 0.386671 5.3 0.813338 5.84667C0.866671 5.92 0.940004 5.97333 1 6.04V10.6667C1 11.4 1.6 12 2.33334 12H11.6667C12.4 12 13 11.4 13 10.6667V6.04C13.06 5.98 13.1333 5.92 13.1867 5.85333C13.6133 5.30667 13.7667 4.60667 13.6 3.92667ZM11.6067 1.32667L12.3067 4.24C12.3733 4.52 12.3133 4.8 12.14 5.02C12.0467 5.14 11.8467 5.33333 11.5133 5.33333C11.1067 5.33333 10.7533 5.00667 10.7067 4.57333L10.32 1.33333L11.6067 1.32667ZM7.66667 1.33333H8.97334L9.33334 4.34667C9.36667 4.60667 9.28667 4.86667 9.11334 5.06C8.96667 5.23333 8.75334 5.33333 8.48001 5.33333C8.03334 5.33333 7.66667 4.94 7.66667 4.46V1.33333ZM4.66 4.34667L5.02667 1.33333H6.33334V4.46C6.33334 4.94 5.96667 5.33333 5.47334 5.33333C5.24667 5.33333 5.04 5.23333 4.88 5.06C4.71334 4.86667 4.63334 4.60667 4.66 4.34667ZM1.69334 4.24L2.36667 1.33333H3.68L3.29334 4.57333C3.24 5.00667 2.89334 5.33333 2.48667 5.33333C2.16 5.33333 1.95334 5.14 1.86667 5.02C1.68667 4.80667 1.62667 4.52 1.69334 4.24ZM2.33334 10.6667V6.64667C2.38667 6.65333 2.43334 6.66667 2.48667 6.66667C3.06667 6.66667 3.59334 6.42667 3.98 6.03333C4.38 6.43333 4.91334 6.66667 5.52 6.66667C6.1 6.66667 6.62 6.42667 7.00667 6.04667C7.4 6.42667 7.93334 6.66667 8.53334 6.66667C9.09334 6.66667 9.62667 6.43333 10.0267 6.03333C10.4133 6.42667 10.94 6.66667 11.52 6.66667C11.5733 6.66667 11.62 6.65333 11.6733 6.64667V10.6667H2.33334Z" fill="#70A1FF"/>
</svg>
