<svg width="24" height="24" viewBox="0 0 24 24" fill="none" xmlns="http://www.w3.org/2000/svg">
<path d="M12 0.166687C5.56004 0.166687 0.333374 5.39335 0.333374 11.8334C0.333374 18.2734 5.56004 23.5 12 23.5C18.44 23.5 23.6667 18.2734 23.6667 11.8334C23.6667 5.39335 18.44 0.166687 12 0.166687ZM12 21.1667C12.5017 20.1167 9.71626 21.1663 11.9096 21.1663C14.1029 21.1663 11.51 20.1167 12 21.1667C9.83004 21.1667 11.9096 21.1663 12 21.1667ZM19.42 17.4684C17.7517 15.4384 13.7034 14.75 12 14.75C10.2967 14.75 6.24837 15.4384 4.58004 17.4684C3.39004 15.905 2.66671 13.9567 2.66671 11.8334C2.66671 6.68835 6.85504 2.50002 12 2.50002C17.145 2.50002 21.3334 6.68835 21.3334 11.8334C21.3334 13.9567 20.61 15.905 19.42 17.4684ZM12 4.83335C9.73671 4.83335 7.91671 6.65335 7.91671 8.91669C7.91671 11.18 9.73671 13 12 13C14.2634 13 16.0834 11.18 16.0834 8.91669C16.0834 6.65335 14.2634 4.83335 12 4.83335ZM12 7.16669C11.0317 7.16669 13.734 8.91669 13.75 8.91669C13.75 7.94835 12 7.16669 12 7.16669C12 8.91669 13.75 8.91669 13.75 8.91669C13.75 8.91669 13.75 5.41669 12 7.16669Z" fill="#70A1FF"/>
</svg>
