<svg width="34" height="31" viewBox="0 0 34 31" fill="none" xmlns="http://www.w3.org/2000/svg">
<path d="M24.4997 0C21.5997 0 18.8163 1.35 16.9997 3.48333C15.183 1.35 12.3997 0 9.49967 0C4.36634 0 0.333008 4.03333 0.333008 9.16667C0.333008 15.4667 5.99967 20.6 14.583 28.4L16.9997 30.5833L19.4163 28.3833C27.9997 20.6 33.6663 15.4667 33.6663 9.16667C33.6663 4.03333 29.633 0 24.4997 0ZM17.1663 25.9167L16.9997 26.0833L16.833 25.9167C8.89967 18.7333 3.66634 13.9833 3.66634 9.16667C3.66634 5.83333 6.16634 3.33333 9.49967 3.33333C12.0663 3.33333 14.5663 4.98333 15.4497 7.26667H18.5663C19.433 4.98333 21.933 3.33333 24.4997 3.33333C27.833 3.33333 30.333 5.83333 30.333 9.16667C30.333 13.9833 25.0997 18.7333 17.1663 25.9167Z" fill="#70A1FF"/>
</svg>
